<?xml version="1.0" standalone="no"?>
<!DOCTYPE svg PUBLIC "-//W3C//DTD SVG 20010904//EN"
 "http://www.w3.org/TR/2001/REC-SVG-20010904/DTD/svg10.dtd">
<svg version="1.0" xmlns="http://www.w3.org/2000/svg"
 width="260.000000pt" height="260.000000pt" viewBox="0 0 260.000000 260.000000"
 preserveAspectRatio="xMidYMid meet">
<metadata>
Created by potrace 1.11, written by Peter Selinger 2001-2013
</metadata>
<g transform="translate(0.000000,260.000000) scale(0.100000,-0.100000)"
fill="#000000" stroke="none">
<path d="M490 1270 l0 -1050 353 2 352 3 2 1048 2 1047 -355 0 -354 0 0 -1050z"/>
<path d="M1818 965 c-2 -1 -25 -5 -53 -8 -126 -14 -242 -92 -292 -197 -38 -78
-51 -197 -31 -280 42 -173 196 -288 384 -288 273 0 448 232 378 500 -19 74
-34 100 -96 160 -56 55 -108 84 -175 98 -62 12 -111 19 -115 15z"/>
</g>
</svg>
